<svg width="170" height="64" viewBox="0 0 170 64" fill="none" xmlns="http://www.w3.org/2000/svg">
<path fill-rule="evenodd" clip-rule="evenodd" d="M168.874 24.6571C168.113 22.2261 167.053 20.0266 165.563 18.1082C164.074 16.1899 162.253 14.8007 160.101 13.7588C159.488 13.4281 158.743 13.0973 158.114 12.932C158.114 12.932 157.882 12.7997 157.667 12.7997C157.568 12.7997 157.452 12.7997 157.336 12.6839C157.253 12.6839 157.137 12.6839 157.137 12.5681L155.565 12.2374C154.406 12.0389 152.916 11.9397 151.194 12.0389C148.645 12.1547 146.394 12.7004 144.407 13.6265C142.255 14.6849 140.434 16.1733 138.944 17.9594C137.454 19.8777 136.395 21.978 135.633 24.5248C134.905 26.9393 134.574 29.6845 134.574 32.4298C134.574 35.2908 134.905 37.9368 135.65 40.3678C136.411 42.7988 137.587 44.9983 138.961 46.8175C140.037 48.0909 141.196 49.1327 142.603 50.0919C143.232 50.5219 143.761 50.8361 144.424 51.1503H144.506C144.506 51.1503 144.606 51.1503 144.606 51.2495C144.677 51.2495 144.71 51.2828 144.74 51.3136C144.767 51.3404 144.791 51.3653 144.838 51.3653C145.914 51.8945 147.089 52.1922 148.364 52.4237C152.088 53.1513 155.283 52.6387 155.283 52.6387C156.988 52.4237 158.594 51.8945 160.084 51.2495C162.319 50.1911 164.123 48.7193 165.63 46.9167C167.12 45.1306 168.179 42.8981 168.941 40.467C169.669 38.036 170 35.39 170 32.529C170 29.6845 169.57 27.0385 168.924 24.5909L168.874 24.6571ZM143.927 26.9724C144.357 25.3186 144.887 23.7145 145.632 22.4411C146.377 21.1842 147.337 20.1258 148.397 19.3981C149.473 18.654 150.747 18.2405 152.121 18.2405C153.512 18.2405 154.687 18.5382 155.763 19.2824C156.823 20.01 157.667 20.9361 158.412 22.1269C159.157 23.4002 159.703 24.7729 160.117 26.4597C160.564 28.1465 160.779 29.8499 160.779 31.7517V32.3801C160.779 34.282 160.564 36.1838 160.25 37.8706C159.819 39.574 159.289 41.0458 158.544 42.3358C157.8 43.5926 156.839 44.5353 155.763 45.2795C154.704 46.0237 153.446 46.3379 152.039 46.3379C150.648 46.3379 149.39 46.0071 148.314 45.2795C147.238 44.5353 146.278 43.5926 145.533 42.3027C144.771 41.0458 144.242 39.574 143.811 37.8706C143.397 36.1838 143.281 34.282 143.281 32.3801C143.397 30.561 143.613 28.6757 143.944 26.9889L143.927 26.9724ZM120.569 53.0025L116.43 57.7488L116 58.1788L116.43 64H122.82L129.541 56.4919V32.6117L129.343 30.7925L120.569 35.3238V53.0025Z" fill="white"/>
<path fill-rule="evenodd" clip-rule="evenodd" d="M66.6959 10.8613L62.5476 6.24851L62 5.85593L62.4314 0L68.8199 0.0981441L75.6896 7.52438V31.6842L75.4905 33.0255L66.6959 28.4454V10.8613ZM125.57 17.3551C127.063 19.2526 128.125 21.4281 128.888 23.8327L128.921 23.7672C129.668 26.1881 130 28.8053 130 31.6187C130 34.4486 129.668 37.0657 128.938 39.4703C128.175 41.8748 127.113 44.083 125.619 45.8496C124.126 47.6326 122.301 49.0884 120.061 50.1353C118.567 50.7732 116.958 51.2966 115.248 51.5093C115.248 51.5093 112.046 52.0164 108.312 51.2966C107.035 51.0676 105.857 50.7732 104.795 50.2498C104.734 50.2498 104.705 50.2189 104.677 50.1892C104.652 50.1617 104.627 50.1353 104.579 50.1353C104.579 50.0371 104.463 50.0371 104.463 50.0371H104.38C103.716 49.7263 103.185 49.4155 102.554 48.9902C101.161 48.0415 99.9824 47.011 98.9039 45.7515C97.5266 43.9522 96.3485 41.7767 95.5852 39.3721C94.8551 36.9676 94.5232 34.3504 94.5232 31.5206C94.5232 28.8053 94.8385 26.09 95.5686 23.7018C96.3319 21.1828 97.3939 19.1054 98.8873 17.2079C100.381 15.4413 102.206 13.9692 104.363 12.9223C106.354 12.0063 108.611 11.4665 111.166 11.352C112.892 11.2539 114.386 11.352 115.547 11.5483L117.123 11.8754C117.123 11.9899 117.24 11.9899 117.323 11.9899C117.455 12.1044 117.555 12.1044 117.654 12.1044C117.87 12.1044 118.102 12.2353 118.102 12.2353C118.733 12.3989 119.48 12.726 120.094 13.0532C122.251 14.0837 124.076 15.4577 125.57 17.3551ZM105.691 21.6408C104.944 22.9003 104.413 24.4869 103.998 26.1227L104.015 26.139C103.589 27.7863 103.47 29.6249 103.355 31.4029L103.351 31.4715C103.351 33.3526 103.45 35.2337 103.882 36.9022C104.313 38.587 104.844 40.0428 105.591 41.2859C106.338 42.5618 107.3 43.4942 108.362 44.2303C109.441 44.95 110.718 45.2771 112.129 45.2771C113.506 45.2771 114.8 44.9663 115.862 44.2303C116.924 43.4942 117.887 42.5618 118.617 41.3187C119.364 40.0428 119.911 38.587 120.326 36.9022C120.658 35.2337 120.89 33.3526 120.89 31.4715V30.85C120.89 28.9689 120.658 27.2841 120.226 25.6156C119.795 23.9472 119.264 22.5895 118.517 21.33C117.771 20.1522 116.908 19.2362 115.862 18.5165C114.784 17.7804 113.606 17.486 112.212 17.486C110.801 17.486 109.54 17.8949 108.478 18.631C107.4 19.3507 106.437 20.3976 105.691 21.6408ZM80.4685 11.5156H89.429V52H80.4685V11.5156Z" fill="white"/>
<path fill-rule="evenodd" clip-rule="evenodd" d="M84.8743 2C82.5969 2 80.7486 3.8681 80.7486 6.16987C80.7486 8.58839 82.5969 10.4398 84.8743 10.3397C87.1517 10.3397 89 8.47163 89 6.16987C89 3.8681 87.1517 2 84.8743 2ZM30.8934 18.9964C32.3786 20.9312 33.4348 23.1496 34.194 25.6014L34.227 25.5347C34.9696 28.0033 35.2996 30.672 35.2996 33.5409C35.2996 36.4264 34.9696 39.0951 34.2435 41.547C33.4843 43.9989 32.4281 46.2506 30.9429 48.052C29.4576 49.8701 27.6423 51.3545 25.4144 52.422C23.9292 53.0725 22.3284 53.6063 20.6286 53.8231C20.6286 53.8231 17.4435 54.3402 13.7304 53.6063C12.4597 53.3728 11.288 53.0725 10.2153 52.5388C10.1163 52.5388 10.1163 52.5388 10.0172 52.422C10.0172 52.322 9.90172 52.322 9.90172 52.322H9.81921C9.15909 52.005 8.631 51.6881 8.00389 51.2545C6.61765 50.2871 5.44595 49.2363 4.37326 47.9519C2.888 46.1172 1.83182 43.9989 1.07269 41.4469C0.330057 38.9951 0 36.3263 0 33.4408C0 30.672 0.330058 27.9032 1.05618 25.468C1.81532 22.8994 2.8715 20.7811 4.35676 18.8463C5.84202 17.0449 7.65733 15.5437 9.80271 14.4762C11.7831 13.5422 14.0274 12.9918 16.5689 12.875C18.2852 12.7749 19.7704 12.875 20.9256 13.0752L22.4934 13.4088C22.4934 13.5255 22.6089 13.5255 22.6915 13.5255C22.8235 13.6423 22.9225 13.6423 23.0215 13.6423C23.236 13.6423 23.4671 13.7757 23.4671 13.7757C24.0942 13.9425 24.8368 14.2761 25.4474 14.6097C27.5928 15.6605 29.4081 17.0616 30.8934 18.9964ZM74.4775 25.6014C73.7183 23.1496 72.6622 20.9312 71.1769 18.9964C69.6916 17.0616 67.8763 15.6605 65.7309 14.6097C65.1203 14.2761 64.3777 13.9425 63.7506 13.7757C63.7506 13.7757 63.5196 13.6423 63.305 13.6423C63.206 13.6423 63.0905 13.6423 62.975 13.5255C62.8759 13.5255 62.7769 13.5255 62.7769 13.4088L61.1927 13.0752C60.0375 12.875 58.5522 12.7749 56.8524 12.875C54.311 12.9918 52.0666 13.5422 50.0862 14.4762C47.9408 15.5437 46.1255 17.0449 44.6403 18.8463C43.155 20.7811 42.0988 22.8994 41.3397 25.468C40.6136 27.9032 40.2835 30.672 40.2835 33.4408C40.2835 36.3263 40.6136 38.9951 41.3562 41.4469C42.1153 43.8988 43.2705 46.1172 44.6568 47.9519C45.7295 49.2363 46.8847 50.2871 48.2874 51.2545C48.9145 51.6881 50.1852 52.322 50.1852 52.322C50.1852 52.322 50.2843 52.322 50.2843 52.422C50.355 52.422 50.3878 52.4556 50.4183 52.4867C50.4447 52.5136 50.4693 52.5388 50.5153 52.5388C51.588 53.0725 52.7432 53.3728 54.0304 53.6063C57.7436 54.3402 60.9286 53.8231 60.9286 53.8231C62.6284 53.6063 64.2292 53.0725 65.7144 52.422C67.9423 51.3545 69.7411 49.8701 71.2429 48.052C72.7282 46.2506 73.7844 43.9989 74.5435 41.547C75.2696 39.0951 75.5832 36.4264 75.5832 33.5409C75.5832 30.672 75.1706 28.0033 74.527 25.5347L74.4775 25.6014ZM49.6076 27.9366C50.0367 26.2686 50.5648 24.6507 51.3074 23.3664C52.0501 22.0988 53.0072 21.0313 54.0634 20.2974C55.1361 19.5468 56.4068 19.1298 57.7766 19.1298C59.1628 19.1298 60.3345 19.43 61.4072 20.1806C62.4634 20.9145 63.305 21.8486 64.0477 23.0495C64.7903 24.3338 65.3184 25.7182 65.7475 27.4195C66.193 29.1208 66.4076 30.8388 66.4076 32.7569V33.3908C66.4076 35.3089 66.193 37.227 65.8795 38.9283C65.4504 40.6463 64.9223 42.1308 64.1797 43.4318C63.437 44.6994 62.4799 45.6502 61.4072 46.4007C60.351 47.1513 59.0968 47.4682 57.694 47.4682C56.3078 47.4682 55.0536 47.1346 53.9809 46.4007C52.9082 45.6502 51.951 44.6994 51.2084 43.3984C50.4493 42.1308 49.9212 40.6463 49.4921 38.9283C49.0795 37.227 48.964 35.3089 48.964 33.3908C49.0795 31.556 49.2941 29.6546 49.6241 27.9533L49.6076 27.9366ZM9.43964 27.9366C9.85222 26.2686 10.3803 24.6507 11.1229 23.3664C11.8656 22.0988 12.8227 21.0313 13.8954 20.2974C14.9516 19.5468 16.2058 19.1298 17.6086 19.1298C18.9948 19.1298 20.1665 19.43 21.2392 20.1806C22.2789 20.9145 23.137 21.8486 23.8797 23.0495C24.6223 24.3338 25.1504 25.7182 25.5795 27.4195C26.0085 29.1208 26.2396 30.8388 26.2396 32.7569L26.2066 33.3908C26.2066 35.3089 26.0085 37.227 25.6785 38.9283C25.2659 40.6463 24.7213 42.1308 23.9787 43.4318C23.2526 44.6994 22.2954 45.6502 21.2392 46.4007C20.183 47.1513 18.8958 47.4682 17.5261 47.4682C16.1233 47.4682 14.8526 47.1346 13.7799 46.4007C12.7237 45.6502 11.7666 44.6994 11.0239 43.3984C10.3638 42.3476 9.86872 40.8632 9.42314 39.0618C8.99407 37.3438 8.87855 35.3923 8.87855 33.4908C8.87855 31.5727 8.99407 29.6546 9.40664 27.9533L9.43964 27.9366Z" fill="white"/>
</svg>
